<?xml version="1.0" encoding="UTF-8"?>
<!DOCTYPE svg PUBLIC "-//W3C//DTD SVG 1.1//EN" "http://www.w3.org/Graphics/SVG/1.1/DTD/svg11.dtd">
<!-- Creator: CorelDRAW -->
<svg xmlns="http://www.w3.org/2000/svg" xml:space="preserve" width="71.4012mm" height="50.6456mm" version="1.1" style="shape-rendering:geometricPrecision; text-rendering:geometricPrecision; image-rendering:optimizeQuality; fill-rule:evenodd; clip-rule:evenodd"
viewBox="0 0 7140.12 5064.56"
 xmlns:xlink="http://www.w3.org/1999/xlink"
 xmlns:xodm="http://www.corel.com/coreldraw/odm/2003">
 <defs>
  <style type="text/css">
   <![CDATA[
    .str0 {stroke:#373535;stroke-width:20;stroke-miterlimit:22.9256}
    .str1 {stroke:#373535;stroke-width:7.62;stroke-miterlimit:22.9256}
    .fil2 {fill:none}
    .fil1 {fill:black}
    .fil4 {fill:black}
    .fil0 {fill:#0051FF}
    .fil3 {fill:white}
    .fil5 {fill:black;fill-rule:nonzero}
   ]]>
  </style>
 </defs>
 <g id="Camada_x0020_1">
  <metadata id="CorelCorpID_0Corel-Layer"/>
  <circle class="fil0" cx="3544.17" cy="2532.28" r="1664.86"/>
  <path class="fil1" d="M3544.17 827.42c470.78,0 897,190.84 1205.51,499.35 308.51,308.51 499.35,734.73 499.35,1205.51 0,470.78 -190.84,897.01 -499.35,1205.52 -308.51,308.51 -734.73,499.34 -1205.51,499.34 -470.77,0 -897.01,-190.83 -1205.52,-499.34 -308.51,-308.51 -499.34,-734.75 -499.34,-1205.52 0,-470.78 190.83,-897 499.34,-1205.51 308.51,-308.51 734.74,-499.35 1205.52,-499.35zm0 40c919.48,0 1664.86,745.38 1664.86,1664.86 0,919.48 -745.38,1664.86 -1664.86,1664.86 -919.48,0 -1664.86,-745.38 -1664.86,-1664.86 0,-919.48 745.38,-1664.86 1664.86,-1664.86z"/>
  <path class="fil2" d="M2511.75 2435.87c0,0 167.69,-99.94 147.26,-253.41"/>
  <line class="fil2" x1="4522.08" y1="2384.59" x2="4409.53" y2= "2161.75" />
  <path class="fil2" d="M2490.45 2412.79l44.47 -129.68 22.96 -2.55 -0.65 0.86 -0.15 0.19 -0.39 0.53 -0.04 0.07 -0.81 1.14 -0.14 0.21 -0.23 0.33 -0.77 1.18 -0.04 0.05 -0.81 1.3 -0.16 0.25 -0.65 1.09 -0.36 0.61 -0.47 0.8 -0.55 0.97 -0.27 0.49 -0.75 1.38 -0.07 0.13 -0.83 1.56 -0.12 0.24 -0.7 1.37 -0.33 0.65 -0.5 1.02 -0.52 1.07 -0.3 0.64 -0.72 1.51 -0.12 0.23 -0.82 1.8 -0.1 0.2 -0.73 1.64 -0.29 0.65 -0.53 1.22 -0.49 1.13 -0.34 0.8 -0.67 1.61 -0.14 0.34 -0.83 2 -0.06 0.13 -0.76 1.89 -0.24 0.62 -0.57 1.44 -0.44 1.13 -0.37 0.96 -0.63 1.65 -0.18 0.47 -0.79 2.15 -0.02 0.04 -0.78 2.12 -0.21 0.57 -0.59 1.64 -0.39 1.1 -0.39 1.12 -0.58 1.65 -0.2 0.59 -0.75 2.21 -0.02 0.05 -0.77 2.29 -0.17 0.5 -0.59 1.8 -0.35 1.05 -0.4 1.26 -0.52 1.62 -0.22 0.71 -0.7 2.2 -0.04 0.15 -0.73 2.35 -0.13 0.41 -0.59 1.95 -0.29 0.98 -0.41 1.4 -0.46 1.54 -0.24 0.83 -0.61 2.12 -0.08 0.26 -0.67 2.38 -0.1 0.31 -0.57 2.09 -0.24 0.87 -0.42 1.51 -0.39 1.45 -0.25 0.93 -0.54 2.03 -0.09 0.35 -0.62 2.39 -0.05 0.2 -0.55 2.17 -0.2 0.77 -0.39 1.59 -0.33 1.32 -0.25 1.04 -0.45 1.88 -0.11 0.46 -0.55 2.33 -0.02 0.1 -0.51 2.21 -0.15 0.66 -0.36 1.65 -0.27 1.19 -0.24 1.09 -0.36 1.73 -0.12 0.54 -0.47 2.24 -0.45 2.23 -0.1 0.53 -0.33 1.67 -0.2 1.05 -0.21 1.12 -0.29 1.55 -0.11 0.61 -0.36 2.03 -0.02 0.09 -0.36 2.09 -0.06 0.41 -0.27 1.66c-1.64,10.19 -2.54,19.18 -2.45,26.09l0.01 0.24 0 0.25c0,0 167.69,-99.94 147.26,-253.41l-0.33 -1.66c-2.22,1.08 -4.53,2.14 -6.94,3.21 -10.81,5.57 -24.15,11.33 -36.4,15.55 -13.33,6.34 -22.55,11.79 -28.81,17.5 -6.68,6.73 -9.54,13.69 -11.42,20.94 -0.17,1.02 -0.3,2.07 -0.42,3.16 -0.61,4.28 -1.74,8.82 -3.25,13.27l-0.05 0.16c-1.93,7.51 -4.9,15.32 -11.52,23.54l0 0.01 -0.17 0.2 -0.17 0.22 -0.35 0.42 -0.17 0.21 -0.35 0.4 -44.47 129.7"/>
  <path class="fil2" d="M2934.9 2337.68c0,0 77.88,86.71 126.99,117.23"/>
  <path class="fil2" d="M3254.64 2512.55c0,0 113,-51.63 99.48,-232.68"/>
  <path class="fil2" d="M3783.15 2273.38c0,0 -34.23,70.34 -24.05,122.17 0,0 -5.73,81.87 88.29,164.57"/>
  <path class="fil2" d="M4099.01 2471.03c0,0 62.23,-20.01 75.23,-136.54"/>
  <path class="fil1" d="M2976.5 3886.47c-7.57,12.21 -21.19,20.52 -40.23,20.52 -55.87,0 -218.04,-131.99 -255.91,-175.88l-0.77 -0.9c-1.16,0.45 -2.37,0.85 -3.62,1.23 -18.41,5.56 -34.81,-1.37 -50.66,-9.89 -87.61,-47.1 -266.91,-275.76 -334.08,-374.59 -147.47,-216.94 -208.37,-460.33 -202.05,-706.11 7.39,-287.8 106.97,-578.89 267.67,-834.77 -104.96,-91.42 -169.22,-232.02 -166.08,-371.02 5.41,-238.69 186.71,-401.23 423.68,-393.06 136.6,4.72 279.22,63.78 372.99,165.52 187.39,-97.93 394.5,-151.04 606.96,-136.59 194.64,13.22 382.35,64.53 555.56,153.16 93.09,-111.98 244.12,-177.13 387.54,-182.09 236.97,-8.17 418.27,154.37 423.68,393.06 3.34,148.01 -69.73,297.95 -187.23,388.35 131.09,224.3 210.18,480.43 224.29,739.93 14.97,274.84 -43.36,548.16 -183.12,786.5 -68.33,116.52 -240.23,302.11 -350.27,385.07l-153.91 115.99 18.95 -36.8c-61.59,50.86 -125.01,92.89 -157.79,92.89 -18.64,0 -31.81,-8.17 -39.08,-20.17 -108.83,55.88 -134.67,71.43 -269.48,98.17 -22.55,4.48 -46.84,8.72 -69.83,9.61 -29.01,1.12 -61.79,-7.47 -69.36,-37.11l-88.88 25.98 -0.83 0.2c-89.64,22.45 -176.76,-0.85 -262.06,-28 -8.32,42.77 -61.85,42.7 -97.01,36.87 -23.07,-3.83 -45.12,-9.82 -67.85,-14.76 -100.57,-21.89 -157.19,-48.31 -231.22,-91.31z"/>
  <path class="fil1" d="M2415.46 1796.38c-328.23,498 -414.07,1167.13 6.85,1650.06 52.39,77.45 186.16,216.06 223.86,236.31 39.72,21.36 3.05,-14.18 -7.94,-31.35l-27.83 -56.13c-6.77,-21.42 -18.92,-51.19 -21.96,-63.61 -3.47,-14.1 4.77,-5.85 45.81,62.31l79.47 108.36c45.04,52.22 194.71,160.61 222.55,160.61 21.82,0 -58.11,-73.45 -70.33,-88.59l-36.38 -52.41 114.62 94.07c97.14,58.39 144.34,90.64 272.9,118.73 25.16,5.37 112.56,29.87 112.55,8.8 -0.77,-14.62 -124.48,-69.67 -83.67,-69.31 -22.29,-20.3 28.54,4.98 28.59,4.99 103.26,27.94 234.57,90.48 349.39,61.73l222.31 -64.96c19.89,0.62 11.16,12.28 -10.79,25.79 -13.13,12.82 -36.65,26.43 -51.48,26.43l-17.2 15.67c0,21.34 151.59,-11.09 250.68,-47.44l128.34 -68.29 102.14 -90.26c2.65,-5.55 6.28,-10.09 10.25,-12.05 45.02,-25.33 -7.06,42.63 -11.92,42.17l-18.59 20.7 8 -4.11c-6.84,6.99 -80.32,78.34 -63.58,78.34 39.74,0 238.42,-165.8 274.17,-228.47 4.22,-7.34 8.11,-12.57 11.52,-15.95 5.07,-9.78 11.11,-20.5 17.64,-31.09 39.75,-69.18 45.05,-45.66 6.61,27.43l-43.71 84.87c67.36,-50.76 92.51,-70.72 166.9,-157.96 58.64,-68.77 128.59,-140.36 171.9,-214.21 272.92,-465.44 220.16,-1060.51 -62.18,-1516.78 125.56,-77.94 205.51,-228.49 202.19,-374.72 -4.67,-206.22 -157.24,-357.66 -378.13,-350.03 -150.97,5.21 -299.25,81.13 -376.51,194.51 -169.01,-92.25 -360.77,-151.37 -571.09,-165.67 -213.26,-14.49 -423.27,41.97 -614.51,148.38 -80.05,-103.76 -220.81,-172.28 -363.96,-177.22 -220.89,-7.63 -373.46,143.81 -378.13,350.03 -3.12,137.68 67.57,279.19 180.65,360.32z"/>
  <path class="fil3" d="M4777.13 3327.56c272.92,-465.44 220.16,-1060.51 -62.18,-1516.78 -135.1,-218.32 -322.76,-404.87 -552.45,-530.24 -169.01,-92.25 -360.77,-151.37 -571.09,-165.67 -213.26,-14.49 -423.27,41.97 -614.51,148.38 -219.8,122.32 -414.81,310.65 -561.44,533.13 -310.07,462.87 -410.82,1085.92 -72.19,1548.91 60.34,82.5 232.33,299.54 302.9,337.46 10.77,5.8 18.64,7.84 17.5,6.33 -33.87,-44.95 -141.53,-281.35 -29.42,-95.11l79.47 108.36c45.04,52.22 194.71,160.61 222.55,160.61 21.82,0 -58.11,-73.45 -70.33,-88.59l-36.38 -52.41 114.62 94.07c97.14,58.39 144.34,90.64 272.9,118.73 25.16,5.37 112.56,29.87 112.55,8.8 -0.58,-8.98 -49.78,-32.24 -75.22,-50.93 -45.59,-33.5 -6.72,-22.64 20.14,-13.39 81.83,28.21 185.48,69.59 281.65,69.63 79.19,0.04 210.68,-49.68 290.05,-72.86 44.76,1.4 -75.43,53.29 -79.47,67.89 0,12.28 50.26,6.74 111.8,-7.1 113.96,-25.64 166.53,-55.06 267.22,-108.63 13.95,-12.32 106.59,-99.45 112.39,-102.31 45.02,-25.33 -7.06,42.63 -11.92,42.17 -14.54,16.18 -85.21,94.55 -74.17,94.93 29.63,1.02 148.6,-81.23 219.87,-163.97 35.87,-41.62 55.54,-66.31 83.46,-111.54 39.75,-69.18 45.05,-45.66 6.61,27.43l-43.71 84.87c107.13,-80.74 272.36,-258.88 338.8,-372.17z"/>
  <path class="fil0" d="M3927.74 2636.74c164.9,93.59 130.04,85.67 247.55,204.54 327.53,331.28 629.98,-544.44 -6.7,-699.93 -222.68,-54.38 -428.46,95.39 -386.55,318.23 18.8,99.96 72.98,135.9 145.7,177.16zm-1512.28 -840.36c146.63,-222.48 341.64,-410.81 561.44,-533.13 -80.05,-103.76 -220.81,-172.28 -363.96,-177.22 -220.89,-7.63 -373.46,143.81 -378.13,350.03 -3.12,137.68 67.57,279.19 180.65,360.32zm1747.04 -515.84c229.69,125.37 417.35,311.92 552.45,530.24 125.56,-77.94 205.51,-228.49 202.19,-374.72 -4.67,-206.22 -157.24,-357.66 -378.13,-350.03 -150.97,5.21 -299.25,81.13 -376.51,194.51zm6.34 1092.54c55.06,83.72 -36.23,116.19 -111.08,137.32 -72.34,21.7 -175.4,-32.38 -187.9,-97.34 -5.7,-75.01 49.06,-121.05 123.1,-135.96 0.76,-0.13 1.52,-0.24 2.27,-0.35 5.4,-0.82 10.8,-1.42 16.15,-1.84 59.3,-3.3 109.32,35.75 142.41,77.37 5.13,6.85 10.03,14.04 14.67,21.54l0.38 -0.74zm-1223.2 137.32c-74.85,-21.13 -166.15,-53.6 -111.08,-137.32l0.38 0.74c4.64,-7.5 9.54,-14.69 14.67,-21.54 33.09,-41.62 83.11,-80.67 142.41,-77.37 5.35,0.42 10.75,1.02 16.14,1.84 0.76,0.11 1.52,0.22 2.28,0.35 74.04,14.91 128.79,60.95 123.1,135.96 -12.5,64.96 -115.56,119.04 -187.9,97.34zm293.49 -52.11c41.91,-222.84 -163.87,-372.61 -386.55,-318.23 -636.68,155.49 -334.23,1031.21 -6.7,699.93 117.51,-118.87 82.64,-110.95 247.55,-204.54 72.72,-41.27 126.9,-77.2 145.7,-177.16z"/>
  <path class="fil3" d="M3018.31 2467.41c-41.63,0 -75.37,-31.6 -75.37,-70.58 0,-38.98 33.74,-70.59 75.37,-70.59 41.63,0 75.37,31.61 75.37,70.59 0,38.98 -33.74,70.58 -75.37,70.58zm1039.45 42.99c74.85,-21.13 166.14,-53.6 111.08,-137.32l-0.38 0.74c-4.64,-7.5 -9.54,-14.69 -14.67,-21.54 -33.09,-41.62 -83.11,-80.67 -142.41,-77.37 -5.35,0.42 -10.75,1.02 -16.15,1.84 -0.75,0.11 -1.51,0.22 -2.27,0.35 -74.04,14.91 -128.79,60.95 -123.1,135.96 12.5,64.96 115.56,119.04 187.9,97.34zm-72.67 -184.16c41.62,0 75.37,31.61 75.37,70.59 0,38.98 -33.75,70.58 -75.37,70.58 -41.63,0 -75.37,-31.6 -75.37,-70.58 0,-38.98 33.74,-70.59 75.37,-70.59zm-1039.45 184.16c72.34,21.7 175.4,-32.38 187.9,-97.34 5.7,-75.01 -49.06,-121.05 -123.1,-135.96 -0.76,-0.13 -1.52,-0.24 -2.28,-0.35 -5.39,-0.82 -10.79,-1.42 -16.14,-1.84 -59.3,-3.3 -109.32,35.75 -142.41,77.37 -5.13,6.85 -10.03,14.04 -14.67,21.54l-0.38 -0.74c-55.07,83.72 36.23,116.19 111.08,137.32z"/>
  <path class="fil0" d="M2942.95 2396.83c0,38.97 33.73,70.58 75.36,70.58 41.63,0 75.36,-31.61 75.36,-70.58 0,-38.99 -33.73,-70.58 -75.36,-70.58 -41.63,0 -75.36,31.59 -75.36,70.58zm1016.16 -21.13c10.53,0 19.09,9.63 19.09,21.53 0,11.91 -8.56,21.55 -19.09,21.55 -10.55,0 -19.1,-9.64 -19.1,-21.55 0,-11.9 8.55,-21.53 19.1,-21.53zm25.97 -49.45c-41.62,0 -75.35,31.59 -75.35,70.58 0,38.97 33.73,70.58 75.35,70.58 41.63,0 75.38,-31.61 75.38,-70.58 0,-38.99 -33.75,-70.58 -75.38,-70.58zm-959.88 70.98c0,-11.9 8.55,-21.53 19.1,-21.53 10.53,0 19.09,9.63 19.09,21.53 0,11.91 -8.56,21.55 -19.09,21.55 -10.55,0 -19.1,-9.64 -19.1,-21.55z"/>
  <path class="fil3" d="M3959.11 2375.7c-10.55,0 -19.1,9.63 -19.1,21.53 0,11.91 8.55,21.55 19.1,21.55 10.53,0 19.09,-9.64 19.09,-21.55 0,-11.9 -8.56,-21.53 -19.09,-21.53zm-895.72 21.53c0,-11.9 -8.56,-21.53 -19.09,-21.53 -10.55,0 -19.1,9.63 -19.1,21.53 0,11.91 8.55,21.55 19.1,21.55 10.53,0 19.09,-9.64 19.09,-21.55z"/>
  <path class="fil4" d="M2631.58 2009.2c305.89,-81.68 634.65,-146.97 952.81,-143.16 502.48,5.99 852.09,143.16 1328.54,267.41 -2.92,-15.85 -30.46,-46.97 -28.91,-52.67l-128.72 -304.81c-166.9,-147.28 -424.44,-197.15 -645.06,-240.49 -375.39,-73.7 -678.13,-76.59 -1053.87,-5.37 -173.98,32.96 -423.11,102.71 -589.05,171.72 -113.83,39.71 -244.39,411.74 -249.86,443.16l78.37 -29.78 335.75 -106.01zm2305.71 382.34c6.36,28.79 12.36,59.97 17.8,95.86 11.52,75.99 8.64,144.13 12.64,229.99 24.91,-31.71 53.63,10.29 74.46,24.62l55.32 59.5c64.53,70.56 117.22,179.87 138.29,286.42 13.18,70.57 11.86,81.64 -34.24,203.41 -57.96,157.72 -75.08,239.37 -64.54,307.16 10.53,69.19 77.7,172.96 133.02,204.79 53.09,30.23 77.27,39.35 138.33,52.55 119.85,24.9 193.63,65.04 214.7,119.01 32.95,82.51 15.55,102.5 -21.06,174.33 61.81,-18.55 88.78,-21.62 193.61,-22.14 47.56,-0.48 91.09,3.57 113.85,-2.09 43.44,-10.8 41.41,-43.85 58.71,-118.29 34.24,-145.28 -67.19,-276.74 -306.91,-398.49 -77.03,-39.11 -127.72,-64.65 -200.24,-107.9 -97.47,-58.12 -175.17,-172.96 -175.17,-258.75 0,-17.99 13.17,-63.65 27.66,-101.01 36.88,-87.17 77.71,-246.29 77.71,-303.02 0,-24.9 -11.85,-80.25 -26.34,-121.77 -71.61,-199.92 -367.24,-315.11 -376.73,-326.54 -0.58,-0.7 -15.42,-23.56 -21.88,-42.9l-8.53 4.41 -20.46 40.85zm-2806.49 6.51c-17.59,11.96 -42.34,25.94 -74.7,42.33 -146.21,73.34 -251.6,174.34 -281.88,271.18 -36.87,112.08 -30.29,203.39 25.02,361.15 27.67,74.71 48.75,156.35 48.75,178.48 0,66.41 -48.75,154.98 -111.96,206.16 -25.14,19.67 -41.61,33.93 -50.02,44.05 -22.57,11.64 -42.37,23.28 -55.98,32.78 -27.32,13.23 -62.57,29.78 -98.16,46.31 -321.39,149.43 -420.19,290.56 -339.84,484.28l27.67 70.58c89.49,-17.28 268.4,5.75 274.83,9.28 16.69,9.17 17.37,-28.58 13.63,-81.25 -5.26,-67.8 -1.31,-89.93 18.46,-112.07 32.9,-38.73 105.36,-76.09 169.91,-88.55 67.24,-11.98 169.92,-55.58 221.27,-106.53 114.59,-114.84 114.59,-190.96 -1.32,-523.02 -22.38,-62.28 -25.03,-88.57 -14.47,-142.54 18.44,-105.15 73.76,-221.38 135.65,-285.02 55.32,-56.74 57.96,-58.1 63.22,-26.29l16.73 -11.49c-3.38,-33.24 -6.74,-78.72 -7.8,-128.81l-4.32 24.58c-18.06,54.64 -123.18,106.01 -166.62,193.2 -23.87,47.93 -36.1,44.43 -59.85,108.73l-31.59 87.57 -34.13 -99.57c-22.23,-124.48 -13.38,-242.11 74.73,-342.71l54.2 -56.32c24.67,-24.36 131.29,-97.37 180,-116.75 2.42,-13.71 5.28,-27 8.57,-39.74zm3113.25 923.19c12.52,-20.13 24.94,11.54 35.99,32.85l40.08 75.58c9.97,29.11 77.51,86.08 107.89,107.28l160.81 86.44c204.1,102.44 408.99,232.14 321.39,428.94l-19.75 45.66 -209.44 0c0,-52.67 2.5,-114.93 -22.39,-159.14 -27.67,-49.8 -131.72,-103.76 -241.04,-124.52 -104.98,-23.22 -232.8,-110.54 -242.34,-242.17 -4.01,-55.23 43.74,-205.3 68.8,-250.92zm42.07 -278.83l-13.42 -29.22c-0.3,-38.28 -56.32,-142.03 -81.32,-167.5 -48.61,-51.65 -91.52,-113.07 -150.87,-151.76 -15.02,-8.34 -16.83,-51.06 -21.33,-75.47l-9.92 -180.87c14.47,-9.68 160.62,88.51 214.67,142.49 86.92,86.74 126.64,202.87 107.89,326.32 -5.32,35.09 -27.8,121.58 -45.7,136.01zm-3399.46 260.09c11.15,4.11 53.75,143.51 71.76,223.62 -0.08,8.22 -0.03,17.58 0.22,28.09 0.6,22.56 1.73,42.84 3.41,57.9 -2.08,35.48 -52.53,106.44 -82.64,137.1l-123.61 63.75c-113.28,6.91 -233.15,60.86 -276.61,127.28 -36.14,53.22 -24.95,88.8 -17.14,157.75l-213.38 -2.78 -23.71 -47.03c-48.73,-96.87 3.96,-226.92 129.08,-314.1 36.89,-24.9 131.73,-78.87 210.76,-120.38 0,0 197.45,-98.3 190.38,-114.17 25.07,-20.68 81.91,-81.12 86.35,-104.75l45.13 -92.28z"/>
  <path class="fil0" d="M1433.47 3685.92c43.07,27.18 173.58,109.02 234.57,141.23 75.26,-19.58 149.88,-15.35 211.37,-77.94 14.42,-14.66 33.47,-38.57 49.65,-63.38 -29.38,-24.57 -125.7,-234.45 -125.7,-234.45 -17.21,19.56 -36.27,38.34 -48.18,48.15 7.07,15.87 -190.38,114.17 -190.38,114.17 -43.06,22.63 -90.82,48.93 -131.33,72.22z"/>
  <path class="fil0" d="M1468 3959l-229.68 -100.67c-35.6,64.44 -42.01,132.88 -13.35,189.85l23.71 47.03 213.37 2.78c-6.85,-60.56 -16.32,-95.37 5.95,-138.99z"/>
  <path class="fil0" d="M1819.03 2733.14c25.66,36.46 78.7,109.87 107.26,146.41 3.87,-6.26 8.01,-13.54 12.58,-22.71 25.86,-51.91 73.6,-91.15 111.8,-125.9 -5.88,-52.87 -8.18,-199.29 -5.9,-250.59 -43.54,27.52 -87.74,59.6 -102.54,74.18l-54.2 56.32c-33.69,38.47 -55.8,79.43 -69,122.29z"/>
  <path class="fil0" d="M5601.97 3775.28c-41.52,26.91 -81.2,50.99 -103.04,64.03l-1.61 0.95 -1.78 -0.52c-30.17,-9.1 -55.94,-15.18 -78.87,-20.58 -81.45,-19.18 -128.46,-30.26 -212.5,-136.93l-2.05 -2.62 1.74 -2.83c16.48,-26.92 40.12,-67.07 62.34,-110.48 22.12,-43.25 42.86,-89.76 53.62,-129.56l2.76 -10.16 5.22 9.03c7.29,12.6 21.9,28.58 38.37,44.25 22.37,21.3 48.23,42.02 64.06,53.11l67.43 36.5 0.1 0.07c14.1,8.12 29.12,16.46 44.9,24.91l0 0.01c15.23,8.13 31.28,16.4 48.04,24.75l0.02 0.02c21.18,10.64 42.37,21.55 63.05,32.71 20.92,11.27 41.46,22.87 61.24,34.77l5.61 3.35 -5.05 4.25c-28.85,24.31 -72.1,54.06 -113.6,80.97z"/>
  <path class="fil0" d="M5301.3 2681.11l-48.62 258.85 -2.49 13.35 -5.78 -12.19c-9.12,-19.29 -19.76,-38.93 -29.86,-55.49 -9.95,-16.32 -19.37,-29.65 -26.23,-36.62l-0.11 -0.13 -106.7 -118.22 -19.26 -14.58 -3.47 -2.64 2.39 -3.7c10.54,-16.36 23.73,-40.21 36.83,-72.86 13.18,-32.8 26.39,-74.58 37,-126.8l1.37 -6.78 5.41 3.94c17.37,12.53 34.29,25.4 49.19,37.57l-0.02 0.01c14.01,11.42 26.43,22.36 36,31.93 15.24,15.2 29.06,31.32 41.37,48.18 12.38,16.98 23.26,34.74 32.55,53.12l0.74 1.46 -0.31 1.6z"/>
  <path class="fil0" d="M5766.59 3928.96c42.49,-31.23 87.2,-61.35 125.43,-86.14l3.55 -2.3 2.39 3.61c20.02,30.38 32.99,62.93 36.49,97.91 3.48,34.93 -2.45,72.26 -20.23,112.19l0.01 0 -19.76 45.65 -1.17 2.73 -2.84 0 -209.43 0 -4.42 0 0.01 -4.62 0.03 -13.22c0.09,-25.52 0.19,-52.75 -2.87,-78.55l-0.29 -2.45 1.8 -1.63c26.3,-23.72 58.12,-48.81 91.3,-73.18z"/>
  <path class="fil3" d="M4335.3 1637.52c113.45,18.76 262.75,80.14 310.58,101.62 61.83,68.28 109.71,119.17 200.84,335.51 -144.76,-38.71 -270.15,-78.85 -392.78,-115.38l-118.64 -321.75zm-1659.68 314.94c-149.93,35.47 -396.71,122.35 -422.57,131.61 21.87,-71.55 133.53,-253.79 178.93,-325.22 95.03,-39 234.64,-88.31 358.52,-124.57l-114.88 318.18zm897 -129.39c-155.93,0.23 -311.93,13.06 -465.42,37.04 -76.02,11.89 -150.87,26.9 -225.64,44.65l114.48 -324.1c57.21,-13.01 114.36,-24.33 170.92,-33.58l0.06 0c161.39,-23.75 310.54,-35.37 460.29,-32.74 149.82,2.64 300.21,19.5 464.01,52.68l0.32 0.09 82.51 23.84c-14.74,-3.56 -29.51,-7.05 -44.26,-10.39l118.67 321.79c-190.45,-47.3 -396.02,-79.7 -675.94,-79.28z"/>
  <line class="fil2" x1="4754.19" y1="2011.94" x2="4615.32" y2= "1723.08" />
  <path class="fil2" d="M2795.65 1951.13c0,0 41.48,48.51 87.12,93"/>
  <path class="fil2" d="M3842.37 1867.79c0,0 -19.2,41.46 -27.86,89.05"/>
  <path class="fil2" d="M4304.73 2035.67c9,-23.25 16.38,-52.33 20.24,-88.67"/>
  <path class="fil2 str0" d="M1803.36 3451.38c0,0 96.32,209.88 125.7,234.45"/>
  <path class="fil5" d="M1823.9 2732.31c14.44,20.45 36.84,51.66 58.79,81.62 15.77,21.54 31.23,42.31 43.14,57.72l2.68 -4.69 0.02 -0.01c2.05,-3.66 4.2,-7.74 6.46,-12.26 23.33,-46.85 63.85,-83.24 99.58,-115.33l11.45 -10.33c-2.6,-25.12 -4.46,-68.69 -5.53,-113.4 -1.13,-48.06 -1.31,-97.5 -0.43,-126.88 -19.25,12.38 -38.33,25.4 -54.55,37.14 -18.26,13.19 -32.91,24.78 -40.19,31.93l0.01 0.01 -54.2 56.32c-16.57,18.94 -30.33,38.52 -41.5,58.53 -10.81,19.37 -19.28,39.28 -25.73,59.63zm51.82 87.28c-22.47,-30.68 -45.66,-63.02 -60.23,-83.71l-1.34 -1.92 0.69 -2.24c6.68,-21.69 15.66,-42.98 27.23,-63.72 11.55,-20.67 25.68,-40.82 42.72,-60.27l0.14 -0.17 54.2 -56.32 0.09 -0.07c7.59,-7.49 22.67,-19.43 41.29,-32.88 18.33,-13.29 40.28,-28.18 61.98,-41.9l7.06 -4.47 -0.39 8.62c-1.19,27.36 -1.11,81.99 0.13,134.88 1.08,45.88 3.03,90.52 5.75,115l0.28 2.41 -1.8 1.62 -13.23 11.93c-35.15,31.57 -75,67.36 -97.52,112.59 -2.31,4.62 -4.53,8.83 -6.66,12.63l0.01 0.01c-2.03,3.65 -4.14,7.17 -6.16,10.45l-3.26 5.27 -3.81 -4.86c-12.59,-16.11 -29.75,-39.13 -47.17,-62.88zm-413.8 1141.74l-221.7 -97.16c-16.52,30.9 -26.2,62.65 -28.36,93.43 -2.18,31.02 3.27,61.12 16.99,88.42l22.5 44.61 205.72 2.68c-0.87,-7.32 -1.73,-14.16 -2.57,-20.65 -5.68,-44.42 -9.62,-75.03 7.42,-111.33zm-221.91 -107.27l229.68 100.66 4.49 1.96 -2.3 4.49c-18.21,35.67 -14.35,65.75 -8.65,110.24 1.05,8.24 2.17,16.96 3.2,26.03l0.6 5.22 -5.02 -0.06 -213.38 -2.76 -2.6 -0.04 -1.23 -2.44 -23.72 -47.03c-14.55,-28.92 -20.29,-60.71 -18.02,-93.4 2.35,-33.35 13.09,-67.69 31.46,-100.93l1.94 -3.51 3.55 1.57zm202.32 -167.95c22.91,14.45 62.31,39.12 103.91,64.53 44.94,27.47 92,55.51 122.3,71.62 18.88,-4.82 37.58,-8.19 56.02,-11.51 54.52,-9.79 106.98,-19.24 151.78,-64.84 7.3,-7.43 15.82,-17.28 24.54,-28.4 7.5,-9.58 15.18,-20.15 22.39,-30.99 -29.68,-31.72 -105.58,-193.68 -121.07,-227.09 -7.13,7.92 -14.4,15.55 -21.14,22.28 -8.78,8.77 -16.94,16.33 -23.17,21.45l-0.01 -0.02c-18.18,28.38 -190.7,114.48 -191.21,114.73 -21.22,11.14 -43.64,23.25 -65.75,35.38 -20.08,11.06 -40.01,22.22 -58.59,32.86zm99.49 72.53c-45.31,-27.68 -88.93,-55.07 -110.6,-68.75l-6.56 -4.16 6.71 -3.85c20.41,-11.74 42.76,-24.3 65.48,-36.79 22.13,-12.16 44.62,-24.29 65.98,-35.52l0.1 -0.06c0.55,-0.26 193.56,-96.15 188.25,-108.02l-1.46 -3.34 2.75 -2.25c6.01,-4.94 13.94,-12.29 22.52,-20.88 8.23,-8.2 17,-17.49 25.16,-26.75l4.37 -5 2.8 6.12c0.26,0.6 95.84,208.88 124.49,232.82l3.22 2.68 -2.33 3.54c-7.91,12.13 -16.58,24.14 -25.04,34.94 -8.95,11.42 -17.7,21.54 -25.18,29.14 -46.79,47.64 -100.58,57.34 -156.43,67.36 -18.87,3.39 -37.97,6.83 -56.94,11.76l-1.55 0.41 -1.48 -0.77c-30.75,-16.23 -78.68,-44.78 -124.26,-72.63z"/>
  <path class="fil1" d="M5771.61 3936.52c-32.84,24.13 -64.39,49.02 -90.58,72.66l-6.22 5.58 -1.03 -8.55c-1.42,-11.85 -3.51,-23.45 -6.57,-34.4 -3.06,-10.88 -7.09,-21.2 -12.36,-30.6l-0.02 -0.01c-9.9,-17.83 -30.23,-36.39 -57.31,-53.72 -28.1,-17.98 -63.46,-34.6 -102.13,-47.78l-9.47 -3.24 8.67 -5.18c21.87,-13.06 61.56,-37.13 102.77,-63.84 41.21,-26.73 84.14,-56.25 112.7,-80.32l2.36 -1.98 2.59 1.57c38.14,22.93 73.96,47.27 105.14,73.32 31.29,26.14 58,54.08 77.79,84.09l2.64 3.99 -3.95 2.57c-38.13,24.73 -82.72,54.75 -125.02,85.84zm-3731.11 -1320.89c-1.26,-53.13 -1.34,-107.97 -0.13,-135.47l0.12 -2.49 2 -1.28c25.76,-16.28 51.35,-31.01 70.52,-39.68 3.59,-1.62 7,-3.02 10.19,-4.18 -13.49,72.43 -15.29,156.91 -12.78,228.77l-0.6 3.23 -0.03 0.24 -0.15 0.38c-3.87,11.69 -11.39,23.15 -21.29,34.66 -9.66,11.26 -21.72,22.7 -34.8,34.61l-6.28 5.73 -0.97 -8.69c-2.74,-24.67 -4.71,-69.64 -5.8,-115.83zm-574.18 1347.62l-229.69 -100.66 -4.64 -2.04 2.53 -4.55c12.81,-23.19 29.37,-45.9 49.34,-67.35l0.01 0c19.42,-20.83 42.1,-40.54 67.74,-58.41l0.07 -0.03c8.28,-5.62 19.41,-12.63 32.48,-20.56l0.03 0c13.79,-8.35 29.83,-17.8 47.18,-27.77l2.21 -1.28 2.16 1.36c26.51,16.73 86.35,54.31 142.82,88.29 34.91,21.02 68.37,40.59 91.45,52.79l10.64 5.6 -11.55 2.99c-41.54,10.82 -80.98,27 -113.86,46.7 -31.5,18.85 -56.99,40.93 -72.43,64.54l-0.04 0.06c-2.11,3.13 -4.1,6.24 -5.92,9.29l-0.02 0c-1.74,2.9 -3.41,5.91 -4.95,8.95l-1.87 3.69 -3.69 -1.61zm460.02 -273.8c-30.15,-25.19 -126.68,-235.47 -126.94,-236.07l-1.3 -2.81 2.05 -2.3c10.07,-11.42 19.52,-23.18 26.46,-33.47 5.72,-8.47 9.65,-15.85 10.6,-20.91l0.13 -0.72 0.41 -0.73c3.97,-7.11 7.59,-14.22 10.67,-21.14l-0.02 0c2.93,-6.62 5.4,-13.06 7.25,-19.13l0.14 -0.43 0.19 -0.38 26.83 -51.1 1.81 -3.44 3.5 1.3c6.64,2.46 19.75,35.44 33.47,78.14 15.05,46.98 31.57,106.31 41.13,148.8l0.11 0.49 -0.01 0.6 -0.01 13.49c0.02,4.48 0.11,9.34 0.23,14.45 0.29,11.31 0.75,22.18 1.34,32.17 0.54,9.49 1.24,18.06 2.05,25.32l0.04 0.42 -0.02 0.39c-0.54,9.26 -4.1,20.63 -9.6,32.9 -6.09,13.65 -14.65,28.6 -24.15,43.14l-2.66 4.11 -3.7 -3.09zm-83.05 -634.75l-34.13 -99.57 -0.13 -0.44 -0.07 -0.27c-6.91,-38.7 -10.85,-76.81 -10.35,-113.99 0.48,-37.27 5.42,-73.62 16.23,-108.71l2.64 -8.56 5.08 7.24c14.34,20.37 37.43,52.55 60.02,83.4 17.56,23.98 34.75,47.02 47.11,62.82l2.06 2.6 -1.78 2.85c-4.34,6.97 -8.39,12.73 -12.33,18.29 -10.7,15.14 -20.57,29.14 -34.5,66.84l0.01 0 -31.6 87.58 -4.21 11.68 -4.05 -11.76zm3262.82 -414.26c-13.44,33.47 -26.88,57.8 -37.64,74.48l-2.53 3.94 -3.69 -2.77 -24.08 -18.26c-13.38,-7.79 -17.26,-35.97 -20.54,-60.08 -0.92,-6.7 -1.81,-13.09 -2.77,-18.42l-0.06 -0.29 -0.02 -0.32 -9.93 -180.88 -0.14 -2.69 2.19 -1.46c5.86,-3.91 23.76,3.02 47.28,16.29 24.77,14 56.83,35.03 87.6,57.26l2.42 1.73 -0.61 3.03c-10.73,52.81 -24.12,95.14 -37.48,128.44zm207.64 356.06c-7.81,23.17 -16.64,42.87 -24.96,49.57l-4.28 3.44 -2.34 -5.1 -13.45 -29.22 -0.42 -0.93 -0.01 -1.03c-0.05,-7.2 -2.34,-17.21 -6.12,-28.73 -4.31,-13.17 -10.56,-28.19 -17.76,-43.38l-0.65 -1.43 0.28 -1.5 48.6 -258.85 2.42 -12.79 5.79 11.52c17.56,34.77 29.54,71.98 35.51,110.73 5.88,38.14 5.93,77.87 -0.2,118.34 -3.1,20.49 -11.99,58.36 -22.41,89.36zm-39.79 574.18c-22.32,43.63 -46.1,84 -62.69,111.09l-3.46 5.67 -3.8 -5.46c-10.07,-14.46 -17.24,-30.22 -22.47,-48.22 -5.18,-17.82 -8.44,-37.87 -10.66,-61.14 -2.71,-28.14 6.1,-76.88 19.27,-124.96l-0.01 0c14.56,-53.08 34.54,-105.72 50.32,-129.07l0.04 -0.08c5.7,-8.15 10.91,-11.07 17.79,-6.86l0.01 0c5.06,3.11 10.61,11.22 18.24,25.67l0.02 0.08 7.34 14.45 40.05 75.57 0.17 0.29 0.14 0.4c0.37,1.12 0.86,2.31 1.43,3.52l0.04 0.02c0.64,1.38 1.36,2.73 2.07,3.99l1 1.72 -0.52 1.92c-10.96,40.48 -31.95,87.64 -54.32,131.4z"/>
  <path class="fil1 str1" d="M4125.44 1569.05l124.46 336.92c38.97,9.32 77.91,19.36 116.98,30.08 29.15,8 58.4,16.39 87.78,25.13l-120.76 -327.48c-34.38,-10.06 -69.01,-19.64 -103.76,-28.69 -33.34,-8.67 -71.26,-28.35 -104.7,-35.96zm-1126.94 4.68l-123.61 349.94c-38.97,9.31 -75.11,8.9 -114.17,19.62 -29.15,7.99 -58.81,15.98 -88.18,24.73l121.15 -342.78c34.37,-10.05 67.82,-11.18 102.56,-20.23 33.33,-8.67 68.8,-23.68 102.25,-31.28z"/>
  <path class="fil0" d="M3070.95 3344.38c-48.79,231.04 971.4,220.71 947.72,0.23 -53.53,-13.03 -186.94,31.3 -241.69,48.05 -190.31,67.26 -214.72,-78.5 -185.69,-137.87 14.41,-29.5 62.42,-48.53 107,-67.24 244.75,-102.75 148.99,-272.39 -154.99,-272.74 -108.61,-0.14 -227.52,20.77 -271.1,77.86 -67.29,88.14 24.91,158.96 109.73,193.39 44.6,18.09 91.4,34.9 109.44,64.36 24.16,39.46 3.3,96.51 -25.66,117.53 -123.84,99.67 -329.56,-42.03 -394.76,-23.57z"/>
  <path class="fil0" d="M2675.62 1952.46l114.64 -317.52 0.24 -0.66c-118.58,34.71 -251.57,81.37 -346.08,119.51 -4.22,1.7 -8.37,3.39 -12.44,5.06 -6.06,9.53 -13.3,21.04 -21.35,34 -52.26,84.11 -138.63,229.22 -157.58,291.22 1.6,-0.57 4.06,-1.45 7.28,-2.59 0.85,-0.3 1.75,-0.62 2.71,-0.95 53.93,-19.01 274.39,-95.38 412.58,-128.07z"/>
  <path class="fil0" d="M4335.31 1637.52l118.63 321.75c122.63,36.53 248.02,76.67 392.78,115.38 -91.13,-216.34 -139.01,-267.23 -200.84,-335.51 -47.83,-21.48 -197.13,-82.86 -310.57,-101.62z"/>
  <path class="fil0" d="M4246.93 1897.94l-118.25 -320.13 -37.04 -10.7 -0.32 -0.09c-163.8,-33.18 -314.19,-50.04 -464.01,-52.68 -149.75,-2.63 -298.9,8.99 -460.35,32.74 -56.56,9.25 -113.71,20.57 -170.91,33.58l-114.49 324.1c74.77,-17.75 149.62,-32.76 225.64,-44.65 153.49,-23.98 309.49,-36.81 465.42,-37.04 279.92,-0.42 485.49,31.98 675.94,79.28l-1.63 -4.41z"/>
 </g>
</svg>
